<svg id="undraw_having_fun_iais_1_" data-name="undraw_having_fun_iais (1)" xmlns="http://www.w3.org/2000/svg" width="850.734" height="534.263" viewBox="0 0 850.734 534.263">
  <path id="Path_1" data-name="Path 1" d="M878.7,508.792c-8.536,20.527-26.4,39.068-45.566,56.628q-25.279,23.158-54.08,44.757-7.982,6-16.218,11.841l-3.815,2.69q-5.074,3.59-10.32,7.112l-.42.285q-5.089,3.463-10.267,6.857c-11.294,7.419-23.233,14.786-36.43,20.887-4.5,2.083-9.136,4.024-13.94,5.763q-3.9,1.416-7.959,2.653c-4.437,1.349-8.993,2.526-13.752,3.492-.794.165-1.6.322-2.4.472-4.871.914-9.8,1.581-14.786,2.038-18.264,1.671-37.127.45-55.421-2.413-9.143-1.431-18.144-3.275-26.853-5.374-1.072-.255-2.136-.517-3.208-.749-29.655-7.419-57.5-17.492-87.362-24.574q-15.438-3.665-31.477-6.22-7.824-1.244-15.738-2.248c-12.418-1.544-24.994-2.578-37.622-3.1-17.027-.75-34.609-.427-50.812,2.548q-3.238.592-6.393,1.334-4,.937-7.854,2.136a139.839,139.839,0,0,0-20.152,8.3c-1.281.63-2.548,1.267-3.815,1.911h0c-3.972,2.023-7.892,4.092-11.871,6.1a149.848,149.848,0,0,1-22.288,9.458,118.014,118.014,0,0,1-12.8,3.268,188.616,188.616,0,0,1-35.853,3.26c-5.9,0-11.8-.127-17.642-.435h-.18c-1.994-.1-3.995-.225-6-.375-9.113-.622-18.2-1.581-27.145-2.893-30.66-4.5-59.738-13-83.128-25.961-31.769-17.6-51.944-43.835-48.916-70.05C38.393,549.3,51.891,531.763,64.7,514.593c23.825-31.971,46.143-64.669,57.887-99.136,9.525-27.977,12.366-57.557,34.287-82.7a114.919,114.919,0,0,1,26.455-21.831,168.928,168.928,0,0,1,24.492-12.381,211.711,211.711,0,0,1,29.521-9.63,234.934,234.934,0,0,1,26.47-4.976c4.841-.63,9.743-1.117,14.674-1.446q5.7-.4,11.444-.5h.592q3.515-.067,7.03,0a327.562,327.562,0,0,1,50.962,4.789c10.537,1.761,20.984,3.92,31.214,6.3q9.158,2.121,18.152,4.444c1.829.472,3.657.952,5.463,1.439,42.658,11.429,80.19,27.212,121.29,40.163.21.067.412.135.622.187h0a253.2,253.2,0,0,0,25.661,6.445q9.544,1.911,19.485,3.342c10.132,1.5,20.482,2.683,30.907,3.7l2.3.225c15.3,1.5,30.727,2.616,45.716,3.92,5.321.465,10.6.944,15.8,1.5q4.946.495,9.8,1.049c2.323.27,4.654.54,6.985.824s4.8.585,7.195.892c1.559.195,3.11.4,4.669.615,9.443,1.252,18.863,2.653,28.179,4.257,5.666.974,11.3,2.023,16.87,3.155q6.048,1.229,11.991,2.593,4.407,1,8.739,2.1c23.465,5.9,45.424,13.632,64.347,24.072C873.039,425.042,895.028,469.537,878.7,508.792Z" transform="translate(-33.297 -140.764)" fill="#c32e4c" opacity="0.1"/>
  <circle id="Ellipse_1" data-name="Ellipse 1" cx="16.21" cy="16.21" r="16.21" transform="translate(170.393 35.329)" fill="#c32e4c" opacity="0.1"/>
  <circle id="Ellipse_2" data-name="Ellipse 2" cx="16.21" cy="16.21" r="16.21" transform="translate(501.729 0)" fill="#c32e4c" opacity="0.1"/>
  <circle id="Ellipse_3" data-name="Ellipse 3" cx="16.21" cy="16.21" r="16.21" transform="translate(698.195 36.303)" fill="#c32e4c" opacity="0.1"/>
  <circle id="Ellipse_4" data-name="Ellipse 4" cx="27.167" cy="27.167" r="27.167" transform="translate(0 63.59)" fill="#c32e4c" opacity="0.1"/>
  <circle id="Ellipse_5" data-name="Ellipse 5" cx="27.167" cy="27.167" r="27.167" transform="translate(26.043 197.74)" fill="#c32e4c" opacity="0.1"/>
  <circle id="Ellipse_6" data-name="Ellipse 6" cx="27.167" cy="27.167" r="27.167" transform="translate(755.19 148.36)" fill="#c32e4c" opacity="0.1"/>
  <path id="Path_2" data-name="Path 2" d="M375.559,325.63a29.236,29.236,0,0,1-.4,6.82c-1.5,6.962-7.839,11.744-13.977,15.371S348.3,354.881,344.652,361c-4.4,7.4-3,17.342,2.166,24.252S360.165,396.28,368.589,398A50.408,50.408,0,0,0,412.3,386.072c11.519-10.642,17.3-27.272,14.472-42.718-6.25.877-11.819-4.639-13.842-10.62s-1.6-12.463-2.391-18.736a6.43,6.43,0,0,0-.929-3,6.733,6.733,0,0,0-3.875-2.106c-7.225-1.986-19.381-6.333-26.867-4.669C372.119,305.77,375.447,319.964,375.559,325.63Z" transform="translate(-109.994 -146.251)" fill="#be6f72"/>
  <path id="Path_3" data-name="Path 3" d="M375.559,325.63a29.236,29.236,0,0,1-.4,6.82c-1.5,6.962-7.839,11.744-13.977,15.371S348.3,354.881,344.652,361c-4.4,7.4-3,17.342,2.166,24.252S360.165,396.28,368.589,398A50.408,50.408,0,0,0,412.3,386.072c11.519-10.642,17.3-27.272,14.472-42.718-6.25.877-11.819-4.639-13.842-10.62s-1.6-12.463-2.391-18.736a6.43,6.43,0,0,0-.929-3,6.733,6.733,0,0,0-3.875-2.106c-7.225-1.986-19.381-6.333-26.867-4.669C372.119,305.77,375.447,319.964,375.559,325.63Z" transform="translate(-109.994 -146.251)" opacity="0.1"/>
  <path id="Path_4" data-name="Path 4" d="M363.271,765.349a149.849,149.849,0,0,1-22.288,9.458,118.023,118.023,0,0,1-12.8,3.268,80.566,80.566,0,0,1,.937-17.237A91.745,91.745,0,0,0,330.79,751a25.811,25.811,0,0,0-2.96-13.82c8.349-1.139,16.278-3,24.664-2.451l.532.038a9.351,9.351,0,0,1,2.923.547,7.892,7.892,0,0,1,3.17,2.788,19.193,19.193,0,0,1,1.192,1.836,29.226,29.226,0,0,1,3.455,13.677,90.966,90.966,0,0,1-.495,11.736Z" transform="translate(-106.437 -254.185)" fill="#be6f72"/>
  <path id="Path_5" data-name="Path 5" d="M423.861,750.365q-4,.937-7.854,2.136a139.825,139.825,0,0,0-20.152,8.3,29.741,29.741,0,0,1-.615-6.205,34.655,34.655,0,0,1,26.493-5.448,3.5,3.5,0,0,1,1.679.674A2.249,2.249,0,0,1,423.861,750.365Z" transform="translate(-123.327 -257.652)" fill="#be6f72"/>
  <path id="Path_6" data-name="Path 6" d="M414.406,670.622a57.551,57.551,0,0,1-3,14.427c-1.881,4.946-4.939,9.743-4.549,15.026.172,2.293.952,4.781,1.064,7.052q-3.238.592-6.393,1.334-4,.937-7.854,2.136a139.845,139.845,0,0,0-20.152,8.3c-1.282.63-2.548,1.267-3.815,1.911h0c-.525-.067-1.042-.15-1.566-.247-3.747-.682-7.689-2.361-9.81-5.359a8.6,8.6,0,0,1-1.132-2.248c-1.222-3.65.052-8.2-2.488-11.092l-.12.1-.09.06a25.179,25.179,0,0,1-4.557,3.283h0a30.541,30.541,0,0,1-24.732,2.383,27.108,27.108,0,0,1-4.639-2.084c-3.432-1.956-6.745-5.246-6.475-9.173.15-2.188,1.4-4.287,1.064-6.453-.247-1.551-1.267-2.84-2.031-4.212-5.014-8.993.967-20.557-2.181-30.33-.075-.232-.157-.465-.24-.69-.232-.637-.495-1.251-.749-1.866-.645-1.431-1.364-2.84-1.934-4.309a25.1,25.1,0,0,1-1.124-3.8,47.564,47.564,0,0,1-.749-11.406,119.323,119.323,0,0,1,4.362-30.068c.457-1.724.967-4.159,1.641-6.812h0a52.156,52.156,0,0,1,2.653-8.184c1.5-3.447,3.537-6.2,6.325-6.85,4.2-.982,10.612,1.094,14.869,1.6l16.825,2.008,33.642,4.025c5.808.7,11.909,1.5,16.7,4.766.315.217.622.442.929.682a18.989,18.989,0,0,1,3.372,3.433c.345.442.674.907.989,1.379a31.192,31.192,0,0,1,2.773,5.291c4.174,10.028,4.272,21.217,4.3,32.076C415.537,648.048,415.575,659.372,414.406,670.622Z" transform="translate(-100.989 -215.74)" fill="#3f3d56"/>
  <path id="Path_7" data-name="Path 7" d="M362.278,727.454c-1.012-3.9-3.148-9.54-3.462-11.077a140.554,140.554,0,0,1-2.293-15.6c-.832-9.338-2.331-22.483.967-31.364,3.1,1.649,5.816,6.318,7.247,9.5,5.186,11.549-.652,25.728,4.219,37.412a6.159,6.159,0,0,1,.667,2.248,5.44,5.44,0,0,1-1.034,2.758l-1.641,2.728Z" transform="translate(-113.358 -237.844)" opacity="0.1"/>
  <path id="Path_8" data-name="Path 8" d="M500.825,246.934c5.516-8.993,13.07-17.837,12.6-28.351-.172-3.747-1.4-7.412-2.338-11.084a70.716,70.716,0,0,1-.517-32.443,36.64,36.64,0,0,1,26.5,5.936c2.451,1.694,4.774,3.8,5.853,6.58,1,2.563.832,5.418.652,8.161-.412,6.3-.974,13.025-4.856,17.987-1.207,1.551-2.69,2.863-3.867,4.429a28.678,28.678,0,0,0-3.7,7.667l-12.741,34.662c-6.43,17.47-13.4,35.741-27.564,47.829-.345.292-10.492-14.119-11.332-15.566-3.395-5.928-1.911-8.431,2.2-13.393C489.809,269.537,494.208,257.7,500.825,246.934Z" transform="translate(-143.971 -113.863)" fill="#be6f72"/>
  <path id="Path_9" data-name="Path 9" d="M297.441,665.33a57.572,57.572,0,0,1-.652,7.727c-.135.944-.292,1.881-.48,2.818-2.556,13.34-8.918,26.028-13.37,39.024-5.868,17.155-8.446,32.039-10.492,49.073-5.9,0-11.8-.127-17.642-.435h-.18c-1.994-.1-3.995-.225-6-.375,1.806-15.888-1.5-32.556,1.731-48.459,1.3-6.4,3.53-12.613,4.871-18.983a53.743,53.743,0,0,0,.937-5.681,15.236,15.236,0,0,1,1.1-5.329,3.924,3.924,0,0,1,.255-.457,12.837,12.837,0,0,1,2.638-3,65.824,65.824,0,0,1,32.271-15.386C294.136,665.637,295.792,665.443,297.441,665.33Z" transform="translate(-86.593 -236.822)" fill="#fbbebe"/>
  <path id="Path_10" data-name="Path 10" d="M297.441,665.33a57.572,57.572,0,0,1-.652,7.727c-.135.944-.292,1.881-.48,2.818-2.556,13.34-8.918,26.028-13.37,39.024-5.868,17.155-8.446,32.039-10.492,49.073-5.9,0-11.8-.127-17.642-.435h-.18c-1.994-.1-3.995-.225-6-.375,1.806-15.888-1.5-32.556,1.731-48.459,1.3-6.4,3.53-12.613,4.871-18.983a53.743,53.743,0,0,0,.937-5.681,15.236,15.236,0,0,1,1.1-5.329,3.924,3.924,0,0,1,.255-.457,12.837,12.837,0,0,1,2.638-3,65.824,65.824,0,0,1,32.271-15.386C294.136,665.637,295.792,665.443,297.441,665.33Z" transform="translate(-86.593 -236.822)" opacity="0.1"/>
  <path id="Path_11" data-name="Path 11" d="M245.782,702.143a117.444,117.444,0,0,1-1.027,12.448c-2,16.87-2.376,34.474-3.747,51.6-1.993-.1-3.994-.225-6-.375-9.113-.622-18.2-1.581-27.145-2.893q1.034-5.786,2.083-11.571c.854-4.729,1.709-9.5,1.461-14.3-.232-4.534-1.446-8.948-2.413-13.392-2.061-9.518-3.215-19.785-6.61-28.764a37.471,37.471,0,0,0-8.289-13.49c14.045-5.516,27.542-5.831,42.628-5.246a5.4,5.4,0,0,1,3.058.749,5.172,5.172,0,0,1,1.536,2.323,58.135,58.135,0,0,1,4.219,17.1A56.1,56.1,0,0,1,245.782,702.143Z" transform="translate(-72.93 -239.482)" fill="#fbbebe"/>
  <circle id="Ellipse_7" data-name="Ellipse 7" cx="29.228" cy="29.228" r="29.228" transform="translate(256.751 117.055)" fill="#be6f72"/>
  <path id="Path_12" data-name="Path 12" d="M395.122,374.384c3.747-6.393,7.03-14.374,14.239-16.15,4.069-1.012,8.3.367,12.268,1.724a6,6,0,0,1,3,1.739,5.891,5.891,0,0,1,.907,3.1,203.143,203.143,0,0,1-.127,39.72c-.952,9.346-2.556,18.646-2.84,28.037-.4,13.018,1.746,26.036,1.042,39.039-.532,9.855-2.69,19.538-4.834,29.168l-8.993,40.32a6.874,6.874,0,0,1-1.446,3.41,6.746,6.746,0,0,1-2.653,1.5,98.747,98.747,0,0,1-79.913-6.258c-3.245-1.784-6.483-3.845-8.6-6.887-3-4.317-3.275-10.027-2.3-15.2s3.08-10.05,4.5-15.124c2.188-7.869,2.706-16.083,3.2-24.237.66-10.732,1.319-21.532.172-32.226-.787-7.367-2.428-14.622-3.665-21.929a241.867,241.867,0,0,1-3.163-33.3c-.187-6.662.12-14.06,4.729-18.863a21.728,21.728,0,0,1,8.3-4.886c5.119-1.889,10.837-3,16.008-1.274s9.338,7.15,8.117,12.463c-.562,2.466-2.158,4.624-2.548,7.127-.517,3.313,1.237,6.648,3.747,8.888C367.767,406.49,388.385,385.955,395.122,374.384Z" transform="translate(-103.064 -159.789)" fill="#e3e8f4"/>
  <path id="Path_13" data-name="Path 13" d="M415.867,330.842a22.1,22.1,0,0,1,12.808-.749c2.706.644,5.628,1.784,8.124.577.907-.435,1.656-1.147,2.571-1.551,2.473-1.087,5.681.247,7.869-1.334,1.379-1,1.829-2.81,2.293-4.459A39.983,39.983,0,0,1,462.745,303.3c-.787,5.748-1.357,12.291,2.443,16.683a16.656,16.656,0,0,0,6.618,4.219c3.53,1.4,7.4,2.331,11.129,1.566s7.21-3.582,7.8-7.337c-.127,5.643-5.5,9.585-7.007,15.034-.57,2.039-.517,4.2-.914,6.288-1.012,5.321-4.811,9.593-8.131,13.88a98.747,98.747,0,0,0-19.635,47.38,22.853,22.853,0,0,1-1.274,6,37.7,37.7,0,0,1-2.488,4.287c-5.493,9.278-3.8,20.984-1.934,31.582,2.915,16.6,5.823,32.863,10.545,49.043.809,2.765,1.724,5.651,3.785,7.667-.652,6.543-7.255,9.525-13.19,12.351A64.706,64.706,0,0,0,434.453,522.8c-1.709,1.574-3.395,3.343-4.017,5.583-.585,2.106-.165,4.422-.914,6.468s-3.747,3.515-5.066,1.791c-1.649-6.168,1.169-12.621,1.042-19.006-.09-4.309-1.5-8.5-1.7-12.808-.195-4.879,1.244-9.668,2.773-14.3,4.257-12.9,9.4-25.676,10.874-39.173s-1.281-28.239-10.859-37.869C415.215,402,408.9,386.436,396.719,375.891c-1.934-1.671-4.122-3.747-3.8-6.28a6.992,6.992,0,0,1,1.431-3.043c4.182-5.906,9.743-10.725,14.239-16.375S416.684,338.037,415.867,330.842Z" transform="translate(-122.738 -146.112)" fill="#3f3d56"/>
  <path id="Path_14" data-name="Path 14" d="M353.54,355.629a21.9,21.9,0,0,1-2.136,2.428,7.045,7.045,0,0,1-3.365,1.042,108.8,108.8,0,0,1-13.318,1.192c-3.747,0-7.637-.33-11.242.7-5.029,1.424-9.046,5.4-11.564,9.968s-3.71,9.743-4.677,14.891a199.153,199.153,0,0,0-3.41,34.392,90.451,90.451,0,0,0,16.375-17c3.6-4.879,6.857-10.275,11.991-13.535,2.361-1.5,5.014-2.488,7.389-3.95,4.954-3.05,8.386-7.982,11.684-12.74,2.428-3.53,9.45-10.425,10.005-14.652C361.747,354.325,356.164,352.354,353.54,355.629Z" transform="translate(-100.424 -158.811)" fill="#3f3d56"/>
  <path id="Path_15" data-name="Path 15" d="M393.594,253.674a23.694,23.694,0,0,1,2.653,1.851c5.089,3.552,11.9,2.893,18.054,2.083a13.551,13.551,0,0,0,5.448-1.5c2.6-1.6,3.822-4.9,3.567-7.952a15.829,15.829,0,0,0-3.665-8.244,29.655,29.655,0,0,0-20.5-11.182,13.19,13.19,0,0,0-6.138.652c-2.421,1-4.242,3.05-6.475,4.422-6.588,4.047-16.735,2.248-20.984,8.709-3.11,4.766-.892,11.242-2.361,16.72-1.094,4.092-4.249,7.817-3.642,11.991.337,2.248,1.746,4.212,2.87,6.22a27.49,27.49,0,0,1,3.44,15.161c2.885,2.038,6.91-1.132,7.712-4.564s-.12-7.09.562-10.552c1.207-6.078,6.573-10.537,8.993-16.113C384.87,257.384,387.7,250.639,393.594,253.674Z" transform="translate(-114.367 -127.401)" fill="#3f3d56"/>
  <path id="Path_16" data-name="Path 16" d="M299.669,342.87a5.648,5.648,0,0,0,.39,4.025c1.5,2.248,4.931,1.439,7.629,1.776,4.2.517,7.307,4.5,8.124,8.679s-.157,8.439-1.222,12.546q-3.612,13.962-8.6,27.527c-8.948-1.057-18.369-4.5-23.12-12.133-4.317-6.947-3.875-15.8-6.618-23.5-1.926-5.426-5.381-10.147-8.8-14.779,5.493.69,9.42-5.591,9.743-11.122s-1.416-11.144-.232-16.548c.277-1.282,21.929,2.758,24.035,4.219C307.081,327.776,300.628,337.009,299.669,342.87Z" transform="translate(-91.309 -150.068)" fill="#fbbebe"/>
  <path id="Path_17" data-name="Path 17" d="M299.669,342.87a5.648,5.648,0,0,0,.39,4.025c1.5,2.248,4.931,1.439,7.629,1.776,4.2.517,7.307,4.5,8.124,8.679s-.157,8.439-1.222,12.546q-3.612,13.962-8.6,27.527c-8.948-1.057-18.369-4.5-23.12-12.133-4.317-6.947-3.875-15.8-6.618-23.5-1.926-5.426-5.381-10.147-8.8-14.779,5.493.69,9.42-5.591,9.743-11.122s-1.416-11.144-.232-16.548c.277-1.282,21.929,2.758,24.035,4.219C307.081,327.776,300.628,337.009,299.669,342.87Z" transform="translate(-91.309 -150.068)" opacity="0.1"/>
  <circle id="Ellipse_8" data-name="Ellipse 8" cx="29.228" cy="29.228" r="29.228" transform="translate(174.313 125.299)" fill="#fbbebe"/>
  <path id="Path_18" data-name="Path 18" d="M267.939,320.2c1.064-1.664-.749-3.987.082-5.778.495-1.079,1.746-1.544,2.713-2.248a10.109,10.109,0,0,0,2.825-3.665,42.6,42.6,0,0,0,3.9-28.441c-.69-3.238-1.3-7.539,1.656-8.993a5.374,5.374,0,0,1,2.616-.45c5.336.172,10.492,3.747,15.671,2.481a8.993,8.993,0,0,0,6.6-7.847c.337-4.841-3.29-8.993-6.857-12.253-6.423-5.906-16.21-7.217-24.934-7.36l-16.225-.27c-5.194-.09-11.017.075-14.629,3.8-5.2,5.358-2.586,14.127-3.335,21.554a22.483,22.483,0,0,1-8.244,15.1c-3.365,2.683-8,5.246-7.937,9.533a15.5,15.5,0,0,0,1.057,4.279c1.656,5.606.075,11.8-3.1,16.713s-7.824,8.686-12.643,11.991c-2.578,1.761-5.246,3.455-7.285,5.846a17.237,17.237,0,0,0-3.8,9.69,12.741,12.741,0,0,0,1.589,7.817c3.17,5.066,10.777,5.808,15.986,2.87s8.386-8.5,10.492-14.089c1.259-3.32,2.541-7.12,5.763-8.611,4.077-1.9,8.843,1.1,11.5,4.737s4.287,8.071,7.682,11.024c5.321,4.632,14.374,3.882,18.871-1.559,3.215-3.9,3.927-9.308,3.747-14.367A20.932,20.932,0,0,0,267.939,320.2Z" transform="translate(-73.399 -131.594)" fill="#3f3d56"/>
  <path id="Path_19" data-name="Path 19" d="M264.3,381.847c-3.335.712-6.82-.862-9.3-3.215s-4.152-5.388-5.891-8.326A146.585,146.585,0,0,0,234,349.366c-4.916-5.673-11.759-11.437-19.058-9.683a18.083,18.083,0,0,0-6.655,3.56,48.519,48.519,0,0,0-18.114,43.3c.57,4.774,1.866,9.443,2.406,14.239a91.276,91.276,0,0,1,.315,11.894c-.2,12.081-.615,24.859-7.127,35.036-10.095,15.738-15.5,34.534-22.91,51.712-4,9.286-6.4,19.171-8.753,29q-2.091,8.754-4.174,17.5l-9.068,38.147c-.937,3.935-1.874,8.056-.884,11.991,1.5,5.876,7.022,9.983,12.845,11.654s11.991,1.387,18.039,1.439c11.571.112,23.233,1.551,34.092,5.568,3.1,1.147,6.2,2.518,9.5,2.788a22.112,22.112,0,0,0,9.69-1.791c8.446-3.268,15.686-8.993,23.465-13.617a92.731,92.731,0,0,1,15.289-7.4c2.668-1,5.531-1.941,7.367-4.122a13.313,13.313,0,0,0,2.466-5.883c2.533-11.811.832-24.05,0-36.1s-8.034-24.784-2.076-35.291c1.2-2.121,2.631-4.159,3.245-6.513.809-3.073.127-6.378.809-9.48.5-2.293,1.709-4.354,2.533-6.55,1.439-3.867,1.634-8.079,1.619-12.208a133.964,133.964,0,0,0-2.848-26.98c-2.361-11.242,5.448-22.356,9.923-32.975,1.6-3.8,3.875-7.39,4.542-11.459.6-3.672-.172-7.412-.749-11.092a97.048,97.048,0,0,1-1.049-17.237c.142-5.171.689-10.44-.547-15.469s-4.766-9.908-9.84-10.942a4.017,4.017,0,0,0-3.387.532,4.384,4.384,0,0,0-1.192,2.1c-1.649,5.051-1.327,10.492-2.248,15.738S269.467,380.737,264.3,381.847Z" transform="translate(-59.264 -155.148)" fill="#f86d70"/>
  <path id="Path_20" data-name="Path 20" d="M206.7,437.408c.307-2.076-.66-4.834-2.758-4.759-1.934.075-2.8,2.5-2.788,4.437s.27,4.167-1.1,5.531c-1.214,1.207-3.223,1.169-4.632,2.151a3.807,3.807,0,0,0-1.6,3.125c0,1.042.472,2.038.5,3.08s-.667,2.248-1.7,2.181a4.7,4.7,0,0,0,.682,5.7c.54.525,1.244.974,1.424,1.709a4.122,4.122,0,0,1-.12,1.536c-.315,2.061,1.109,4.369,3.185,4.594-1.162.832-.929,2.78.135,3.747a5.862,5.862,0,0,0,4.025,1.154,24.463,24.463,0,0,0,9.45-1.956,5.635,5.635,0,0,0,2.608-1.8,2.248,2.248,0,0,0-.217-2.908c1.454.24,3.2.375,4.152-.75,1.326-1.574-.1-3.9-1.5-5.426a3,3,0,0,0,1.394-5.336c-.48-.352-1.132-.66-1.2-1.252s.435-.974.645-1.5c.48-1.177-.615-2.376-1.671-3.088-2.5-1.664-6.19-1.634-8.416-3.313S206.381,439.657,206.7,437.408Z" transform="translate(-72.396 -178.521)" fill="#be6f72"/>
  <path id="Path_21" data-name="Path 21" d="M412.87,287.259a35.477,35.477,0,0,1-5.463.128,1.192,1.192,0,0,0-1.312,1.034l-3.485,26.141a10.612,10.612,0,0,1-2.248,5.179,11.286,11.286,0,0,0-2.541,8.626v44.4s-.225,5.921,4.324,5.921a65.76,65.76,0,0,0,16.4,0s3.642-.689,3.642-6.153V328.815a10.694,10.694,0,0,0-2.248-8.694,10.881,10.881,0,0,1-2.181-5.149l-3.62-26.688A1.192,1.192,0,0,0,412.87,287.259Z" transform="translate(-123.953 -142.092)" fill="#3f3d56"/>
  <path id="Path_22" data-name="Path 22" d="M412.87,287.259a35.477,35.477,0,0,1-5.463.128,1.192,1.192,0,0,0-1.312,1.034l-3.485,26.141a10.612,10.612,0,0,1-2.248,5.179,11.286,11.286,0,0,0-2.541,8.626v44.4s-.225,5.921,4.324,5.921a65.76,65.76,0,0,0,16.4,0s3.642-.689,3.642-6.153V328.815a10.694,10.694,0,0,0-2.248-8.694,10.881,10.881,0,0,1-2.181-5.149l-3.62-26.688A1.192,1.192,0,0,0,412.87,287.259Z" transform="translate(-123.953 -142.092)" opacity="0.1"/>
  <rect id="Rectangle_5" data-name="Rectangle 5" width="22.086" height="37.345" rx="11.043" transform="translate(275.135 187.068)" fill="#c32e4c"/>
  <path id="Path_23" data-name="Path 23" d="M515.045,136.494a34.524,34.524,0,0,1-4.991,2.248,1.2,1.2,0,0,0-.817,1.454l6.85,25.481a10.581,10.581,0,0,1-.06,5.636,11.242,11.242,0,0,0,.974,8.941l17.1,40.979s2.068,5.546,6.273,3.792a65.3,65.3,0,0,0,15.139-6.34s3.1-2.038,1-7.075l-16.84-40.35a10.724,10.724,0,0,0-5.418-7.165,10.9,10.9,0,0,1-3.995-3.9l-13.617-23.233A1.2,1.2,0,0,0,515.045,136.494Z" transform="translate(-151.88 -104.283)" fill="#3f3d56"/>
  <rect id="Rectangle_6" data-name="Rectangle 6" width="22.086" height="37.345" rx="11.043" transform="translate(366.593 76.196) rotate(-22.65)" fill="#c32e4c"/>
  <path id="Path_24" data-name="Path 24" d="M233.066,344.935c-8.056,3.32-11.242,13.647-9.353,22.146s7.577,15.581,13.123,22.318l15.543,18.961c4.294,5.246,8.993,10.769,15.543,12.6,9.578,2.676,19.156-3.425,27.437-8.941a413.321,413.321,0,0,1,78.811-41.039,26.511,26.511,0,0,0,7.7-3.987c4.617-3.882,5.913-11.039,3.342-16.488a16.507,16.507,0,0,0-14.592-9.038,19.716,19.716,0,0,0-15.528,7.974c-1.731,2.3-3,4.931-4.669,7.27-4.227,5.876-10.822,9.51-17.275,12.793a441.175,441.175,0,0,1-47.964,20.984c-3,1.094-6.378,2.136-9.2.689a11.177,11.177,0,0,1-3.95-4.227,104.964,104.964,0,0,1-11.317-24.117c-2.046-6.37-3.7-13.31-8.619-17.837-6.97-6.415-19.59-4.879-24.814,3,0,0-6.123,8.956-2.376,12.7S233.066,344.935,233.066,344.935Z" transform="translate(-80.218 -155.558)" fill="#fbbebe"/>
  <path id="Path_25" data-name="Path 25" d="M792.848,301.193a22.87,22.87,0,0,1,.967,9.218c-.195,3.792-1.147,8.244-4.669,9.69-2.293.922-5.126.225-7.165,1.619-2.473,1.679-2.353,5.291-1.971,8.244,1.057,8.116,2.248,16.533,6.67,23.4a49.7,49.7,0,0,0,8.851,9.675c6.5,5.861,13.625,11.586,22.161,13.542a9.271,9.271,0,0,0,4.272.18,8.845,8.845,0,0,0,3.695-2.248c4.946-4.542,7.494-11.024,10.792-16.9,2.331-4.2,5.111-8.244,6.423-12.875a22.483,22.483,0,0,0-6.88-22.686c-1.461-1.252-3.08-2.3-4.5-3.6a23.066,23.066,0,0,1-6.745-13.093,57.3,57.3,0,0,1-.322-14.989,81.553,81.553,0,0,0-22.251,1.791c-3.252.652-7.832.952-10.777,2.5C788.089,296.427,791.941,298.682,792.848,301.193Z" transform="translate(-219.682 -142.829)" fill="#fbbebe"/>
  <path id="Path_26" data-name="Path 26" d="M792.848,301.193a22.87,22.87,0,0,1,.967,9.218c-.195,3.792-1.147,8.244-4.669,9.69-2.293.922-5.126.225-7.165,1.619-2.473,1.679-2.353,5.291-1.971,8.244,1.057,8.116,2.248,16.533,6.67,23.4a49.7,49.7,0,0,0,8.851,9.675c6.5,5.861,13.625,11.586,22.161,13.542a9.271,9.271,0,0,0,4.272.18,8.845,8.845,0,0,0,3.695-2.248c4.946-4.542,7.494-11.024,10.792-16.9,2.331-4.2,5.111-8.244,6.423-12.875a22.483,22.483,0,0,0-6.88-22.686c-1.461-1.252-3.08-2.3-4.5-3.6a23.066,23.066,0,0,1-6.745-13.093,57.3,57.3,0,0,1-.322-14.989,81.553,81.553,0,0,0-22.251,1.791c-3.252.652-7.832.952-10.777,2.5C788.089,296.427,791.941,298.682,792.848,301.193Z" transform="translate(-219.682 -142.829)" opacity="0.1"/>
  <path id="Path_27" data-name="Path 27" d="M697.645,286.257c-12.171-4.174-17.987-20.482-30.727-22.311-2.008-.292-4.069-.18-6.041-.645-7.337-1.739-10.492-10.222-12.613-17.455-7.15-24.11-16.488-47.7-29.753-69.076-5.6-8.993-14.449-16.383-18.489-26.23-.929-2.248-1.4-4.811-3.073-6.588s-5.246-2.031-6.153.232a5.247,5.247,0,0,0-.165,2.481l.877,9.331-15.244-1.371a8.9,8.9,0,0,0-4.219.3,7.157,7.157,0,0,0-3.32,3.455c-5.156,9.69.337,22.386,9.435,28.516,10.627,7.157,25.8,8.244,32.863,18.923,4.2,6.355,4.279,14.532,7.045,21.629,1.319,3.395,3.245,6.513,4.781,9.8,2.93,6.273,4.429,13.093,6.7,19.628,3.253,9.346,8.072,18.054,12.875,26.71,3.7,6.685,7.494,13.49,13.19,18.6a64.866,64.866,0,0,0,12.561,8.244c10.837,5.921,23.615,11.616,35.1,7.075C703.933,307.271,701.362,295.857,697.645,286.257Z" transform="translate(-166.298 -105.836)" fill="#fbbebe"/>
  <path id="Path_28" data-name="Path 28" d="M777.914,753.774c-.922,9.78-6.857,18.639-8.244,28.052-9.143-1.431-18.144-3.275-26.852-5.373-1.072-.255-2.136-.517-3.208-.75,4.931-13.49.637-28.6,1.941-42.965.127-1.379.307-2.758.547-4.122,11.294-3.852,21.494-8.993,33.335-7.494.232,2.4.472,4.8.7,7.2q.712,7.187,1.409,14.359A58.222,58.222,0,0,1,777.914,753.774Z" transform="translate(-209.612 -250.734)" fill="#fbbebe"/>
  <path id="Path_29" data-name="Path 29" d="M881.7,778.15c-4.437,1.349-8.993,2.526-13.752,3.492-.794.165-1.6.322-2.4.472-4.871.914-9.8,1.581-14.787,2.038-.51-10.417-7.494-20-8.514-30.69a45.065,45.065,0,0,1,.082-7.982c.09-1.049.195-2.1.292-3.148l2.113-21.562a33.263,33.263,0,0,1,5.074-.247c9.743.232,18.609,4.452,28.262,7.742a67.374,67.374,0,0,1,.749,13.76c-.367,11.706-2.248,23.555,2.1,34.294C881.172,776.929,881.442,777.536,881.7,778.15Z" transform="translate(-235.296 -250.648)" fill="#fbbebe"/>
  <path id="Path_30" data-name="Path 30" d="M723.02,577.881c1.312,10.222-3.912,20.01-6.175,30.06-1.5,6.647-1.7,13.49-1.9,20.31L713.757,669.1c-.12,4.084-.225,8.244,1.019,12.163,2.5,7.854,10.215,13.16,18.241,15.049s16.42.929,24.6-.15c4.009-.532,8.191-1.154,11.511-3.47,4.564-3.185,6.558-8.858,8.281-14.149l4.864-14.937c5.6,12.606,3.23,26.388,6.587,39.765a7.7,7.7,0,0,0,1.5,3.4c1.416,1.574,3.747,1.821,5.868,1.971,14.689,1.034,29.58,2.061,44.03-.75,3.972-.749,8.117-1.964,10.859-4.946,3.193-3.47,3.747-8.574,3.71-13.288-.2-16.2-6.056-31.821-7.359-47.964-.562-6.917-.285-13.872-.532-20.812a139.317,139.317,0,0,0-1.461-15.588,20.939,20.939,0,0,0-1.919-6.82c-2.248-4.2-6.917-6.475-11.339-8.244C797.86,576.374,760.073,576.509,723.02,577.881Z" transform="translate(-203.117 -214.761)" fill="#f86d70"/>
  <circle id="Ellipse_9" data-name="Ellipse 9" cx="32.226" cy="32.226" r="32.226" transform="translate(551.282 97.57)" fill="#fbbebe"/>
  <path id="Path_31" data-name="Path 31" d="M814.79,336.631c-2.391,5.246-6.153,10.492-11.751,11.826-5.149,1.237-10.6-1.244-14.4-4.939s-6.273-8.491-8.9-13.085c-1.919-3.358-4.054-6.745-7.3-8.858-4.437-2.878-10.163-2.8-15.394-1.956s-10.425,2.361-15.738,2.016c-6.618-.442-13.363-3.747-19.605-1.544,2.023,9.053,1.3,19.006,1.064,28.284a12.741,12.741,0,0,1-.6,4.227,13.651,13.651,0,0,1-2.181,3.507l-6,7.727c6.43,4.811,11.991,11.092,14.239,18.8,1.267,4.392.877,9.053.832,13.625-.142,13.423,2.773,26.793,1.851,40.185-1.079,15.686-7.344,30.51-10.575,45.9a120.153,120.153,0,0,0-1.544,40.17c33.59,11.624,68.2,17.574,103.708,19.523,6.273.345,13.048.4,18.2-3.208,4.279-3,6.677-8.131,7.494-13.3s.255-10.432-.315-15.633q-2.316-21.1-4.624-42.194c-.877-8-1.754-16.053-1.184-24.08a134.073,134.073,0,0,1,2.878-17.747l7.494-36.018c1.072-5.119,2.151-10.275,4.272-15.049,1.739-3.9,4.144-7.494,6.063-11.287a49.843,49.843,0,0,0,4.677-14.442,9.573,9.573,0,0,0-.06-4.422c-.8-2.458-3.253-3.935-5.538-5.141a160.9,160.9,0,0,0-44.337-15.551C816.469,328.38,816.671,332.516,814.79,336.631Z" transform="translate(-203.193 -150.072)" fill="#e3e8f4"/>
  <path id="Path_32" data-name="Path 32" d="M828.753,286.688c3.747-7.18,10.754-12.216,14.824-19.231a28.426,28.426,0,0,0,.914-26.23c-1.431-2.923-3.372-5.606-4.5-8.664-1.252-3.477-1.371-7.307-2.818-10.71-1.986-4.662-6.288-8.019-10.972-9.953s-9.743-2.631-14.786-3.305L794.391,206.3a18.734,18.734,0,0,0-7.42,0c-2.4.66-4.632,2.616-4.826,5.1-.232,2.945,2.353,5.688,1.754,8.581-.217,1.019-.817,2.053-.472,3.043a3.088,3.088,0,0,0,1.5,1.5c4.04,2.248,8.866,2.451,13.243,3.92s8.768,5.156,8.326,9.743c-.24,2.466-1.829,5.029-.749,7.24,1.034,2.046,3.747,2.421,5.913,3.058a15.847,15.847,0,0,1,10.9,16.862c-.315,2.248-1.124,4.4-1.289,6.655-.547,7.9.7,10.155,7.15,14.749Z" transform="translate(-220.266 -121.713)" fill="#3f3d56"/>
  <path id="Path_33" data-name="Path 33" d="M894.947,351.379a10.933,10.933,0,0,1-.8,4.369c-2.338,4.984-9.5,4.669-14.239,7.494-5.906,3.522-7.21,11.384-7.749,18.234-.615,7.757-1.034,15.626.554,23.233s5.411,15.026,11.8,19.485c7.772,5.4,18.339,5.591,27.212,2.3s16.285-9.653,22.716-16.608c6.1-6.6,11.564-13.947,14.839-22.318a7.108,7.108,0,0,0,.622-4.587c-.7-2.248-3.148-3.268-5.141-4.5-4.654-2.81-7.757-7.712-9.368-12.89s-1.881-10.687-1.933-16.12c-.06-5.643-.075-11.811-3.672-16.165s-9.833-5.576-15.514-5.531c-4.647,0-17.507.442-20.677,4.5C890.99,335.649,895.134,346.553,894.947,351.379Z" transform="translate(-242.685 -152.245)" fill="#be6f72"/>
  <path id="Path_34" data-name="Path 34" d="M894.947,351.379a10.933,10.933,0,0,1-.8,4.369c-2.338,4.984-9.5,4.669-14.239,7.494-5.906,3.522-7.21,11.384-7.749,18.234-.615,7.757-1.034,15.626.554,23.233s5.411,15.026,11.8,19.485c7.772,5.4,18.339,5.591,27.212,2.3s16.285-9.653,22.716-16.608c6.1-6.6,11.564-13.947,14.839-22.318a7.108,7.108,0,0,0,.622-4.587c-.7-2.248-3.148-3.268-5.141-4.5-4.654-2.81-7.757-7.712-9.368-12.89s-1.881-10.687-1.933-16.12c-.06-5.643-.075-11.811-3.672-16.165s-9.833-5.576-15.514-5.531c-4.647,0-17.507.442-20.677,4.5C890.99,335.649,895.134,346.553,894.947,351.379Z" transform="translate(-242.685 -152.245)" opacity="0.1"/>
  <path id="Path_35" data-name="Path 35" d="M848.035,609.216a6.408,6.408,0,0,0,1.559,3.058,6.19,6.19,0,0,0,2.526,1.192c24.6,7.217,50.872,4.339,76.338,1.394-3.485-10.612-6.992-21.344-7.959-32.473-.8-9.181.1-18.736-3.155-27.347-.959-2.548-56.868,9.181-62.384,10.132-2.825.487-6.078.322-8.079,2.563-2.413,2.713-2.615,9.173-2.87,12.553C843.292,590.053,845.308,599.886,848.035,609.216Z" transform="translate(-235.734 -209.097)" fill="#be6f72"/>
  <path id="Path_36" data-name="Path 36" d="M906.174,762.066c-4.5,2.083-9.136,4.025-13.94,5.763q-3.9,1.417-7.959,2.653c-4.437,1.349-8.993,2.526-13.752,3.492q-4.07-10.32-8.146-20.647c-2-5.066-4-10.155-5.673-15.334a96.016,96.016,0,0,1-2.863-10.784,76.93,76.93,0,0,1,1.859-37.3c10.387,1.956,20.542,3.23,30.772,4.714,5.463.75,10.942,1.634,16.488,2.676q.652,5.418,1.184,10.837.81,8.364,1.327,16.728Q906.616,743.45,906.174,762.066Z" transform="translate(-237.867 -242.98)" fill="#be6f72"/>
  <path id="Path_37" data-name="Path 37" d="M906.174,762.066c-4.5,2.083-9.136,4.025-13.94,5.763q-3.9,1.417-7.959,2.653c-4.437,1.349-8.993,2.526-13.752,3.492q-4.07-10.32-8.146-20.647c-2-5.066-4-10.155-5.673-15.334a96.016,96.016,0,0,1-2.863-10.784,76.93,76.93,0,0,1,1.859-37.3c10.387,1.956,20.542,3.23,30.772,4.714,5.463.75,10.942,1.634,16.488,2.676q.652,5.418,1.184,10.837.81,8.364,1.327,16.728Q906.616,743.45,906.174,762.066Z" transform="translate(-237.867 -242.98)" opacity="0.1"/>
  <path id="Path_38" data-name="Path 38" d="M975.252,735.436c.06,4.317-1.169,8.723-2.308,12.958-.082.3-.157.592-.232.892a12.35,12.35,0,0,1-6.618-4.961,14.172,14.172,0,0,1-1.776-4.159q-5.088,3.463-10.267,6.858c-11.294,7.42-23.233,14.786-36.43,20.887-4.5,2.083-9.136,4.024-13.94,5.763q-1.5-5.246-2.848-10.56a97.825,97.825,0,0,1-2.308-11.084,56.3,56.3,0,0,1,2.488-25.219h0l.337-.974a55.117,55.117,0,0,1,4.909-10.335c1.866-3,5.561-2.5,9.33-1.5,1.709.442,3.44.974,5.014,1.3,9.8,2.054,19.965-.067,29.978.495a35.837,35.837,0,0,1,13.752,3.5c4.819,2.421,8.7,6.123,10.222,11.242a16.761,16.761,0,0,1,.495,2.248,19.886,19.886,0,0,1,.2,2.646Z" transform="translate(-249.313 -248.823)" fill="#be6f72"/>
  <path id="Path_39" data-name="Path 39" d="M725.632,260.39c-15.476-14.989-33.065-27.692-51.06-39.571a140.239,140.239,0,0,1-13.49-9.615c-4.5-3.747-8.416-8.146-13.19-11.519S637.213,194,631.48,195.106s-10.829,6.6-9.99,12.336c.75,5.051,5.291,8.514,9.488,11.414,7.944,5.493,15.926,11,24.567,15.311a77.01,77.01,0,0,1,8.716,4.647c5.381,3.627,9.3,8.993,13.37,14.037a195.179,195.179,0,0,0,55.459,47.215c.255.15,9.121-18.983,8.746-21.464C741.011,272.9,729.709,264.347,725.632,260.39Z" transform="translate(-179.993 -118.933)" fill="#be6f72"/>
  <path id="Path_40" data-name="Path 40" d="M913.593,605.454c-11.946.749-23.4,4.781-35.089,7.352s-24.379,3.567-35.224-1.5l6.6,45.034a20.9,20.9,0,0,1,.2,7.532c-.5,2.353-1.806,4.572-1.694,6.977.172,3.807,3.747,6.483,7.112,8.244a63.591,63.591,0,0,0,31.776,7.322c-.817,3.3-1.836,6.558-2.661,9.855,5.509,5.913,14.517,6.31,22.379,8.184,6,1.416,11.616,3.875,17.492,5.606a74.672,74.672,0,0,0,21.891,3.05c5-.053,10.3-.75,14.18-3.867,4.774-3.845,6.258-10.38,7.292-16.42a37.35,37.35,0,0,0,.75-10.192c-.39-3.912-1.9-7.614-3.4-11.242l-10.267-24.919c-1.866-4.5-3.747-9.061-6-13.4C941.584,619.034,929.4,604.473,913.593,605.454Z" transform="translate(-235.587 -221.807)" fill="#3f3d56"/>
  <path id="Path_41" data-name="Path 41" d="M898.907,373.19a11.242,11.242,0,0,1,11.766-7.172c3,.42,5.673,2.061,8.244,3.665l14.314,8.933a62.379,62.379,0,0,1,6.813,4.691c9.87,8.184,13.677,21.636,14.764,34.414s0,25.773,2.541,38.341c-6.041,5.006-12.741,9.241-18.781,14.24-3.163,2.615-6.363,5.246-8.761,8.611-1.9,2.646-3.26,5.673-5.246,8.244a19.83,19.83,0,0,1-13.138,7.3c3.275,1.9,5.111,5.6,6,9.278s1.124,7.494,2.106,11.174c1.349,5,4.144,9.563,5.066,14.659.644,3.515.36,7.12.592,10.687,1.169,18.459,15.656,34.594,14.719,53.061a80.47,80.47,0,0,1-19.231-10.11c-2.668-1.911-5.246-3.979-7.772-6.04L893.811,561.69c-9.286-7.494-18.661-15.154-26.043-24.567-4.631-5.906-8.409-12.441-13.055-18.331s-10.365-11.242-17.462-13.715c-1.042,1.566-2.893,2.653-3.935,4.219a3.132,3.132,0,0,0-.435.809,3.545,3.545,0,0,0,.247,2.068,43.065,43.065,0,0,1,1.5,9.286l.472,5.636a19.184,19.184,0,0,1,0,4.5c-.712,4.819-5.179,8.559-10,9.308a4.347,4.347,0,0,1-2.106-.067c-1.341-.45-2.083-1.866-2.488-3.215-1.9-6.4,1.012-13.153,1.244-19.815a47.627,47.627,0,0,0-.172-5.066l-.45-6.648c-4.354-.907-6.858-5.583-8.012-9.878-3.118-11.594-6.258-23.592-4.452-35.464.48-3.178,1.319-6.4.749-9.578-.749-4.249-3.807-7.7-5.419-11.7-5.246-13.048,5.9-27.212,4.864-41.219-.435-5.883-4.167-10.994-6.415-16.45a46.464,46.464,0,0,0-4.5-9.076c-2.293-3.275-5.388-5.9-8.394-8.536a320.554,320.554,0,0,1-26.365-25.976,19.486,19.486,0,0,1-11.354-5.2c-1.979-1.874-3.6-4.347-3.657-7.067s1.956-5.576,4.677-5.718c1.589-.082,3.073.7,4.624,1.049,4.856,1.064,9.743-2.511,11.909-7s2.166-9.653,2.128-14.629a14.03,14.03,0,0,1,12.988,4.549c3.35,3.642,5.531,8.184,8.169,12.366a19.163,19.163,0,0,0,4.077,4.924c3.6,2.863,8.8,3.4,11.946,6.745,1.6,1.709,2.481,3.972,3.942,5.8,4.107,5.149,11.624,5.778,17.237,9.166s9.518,9.578,15.738,11.586c2.249.749,4.7.847,6.925,1.679,5.141,1.911,8.281,7.375,8.993,12.808s-.5,10.927-1.731,16.278l-2.885,12.523c-.637,2.773-1.124,6.108.922,8.086a8.333,8.333,0,0,0,3.32,1.671c5.246,1.709,11.092,3.387,16.023.967a18.954,18.954,0,0,0,5.831-5.1C890.326,395.082,895.19,383.8,898.907,373.19Z" transform="translate(-211.759 -145.143)" fill="#c32e4c"/>
  <path id="Path_42" data-name="Path 42" d="M1017.509,714.816c-1.034,6.857-4.811,13.6-10.994,16.743a15.739,15.739,0,0,1-11.909.824,12.35,12.35,0,0,1-6.618-4.961,14.165,14.165,0,0,1-1.776-4.159,1.3,1.3,0,0,0-.052-.232,32.978,32.978,0,0,1-.7-8.071,105.327,105.327,0,0,1,.75-12.583,68.11,68.11,0,0,1,2.068-10.4c1.394-4.864,3.4-9.548,5.246-14.239.959-2.473,1.881-4.954,2.638-7.494h0c.457-1.5.847-3.043,1.161-4.6l.112-.562c.06-.315.113-.629.165-.944.75-4.272.967-8.694,2.893-12.553,4.5-9.061,13.25-6.745,14.584,1.611a14.748,14.748,0,0,1,.172,1.956c.2,10.575-3.995,20.909-2.076,31.522a73.442,73.442,0,0,0,2.038,7.659c.674,2.316,1.281,4.661,1.746,7.037A39.995,39.995,0,0,1,1017.509,714.816Z" transform="translate(-271.207 -231.921)" fill="#be6f72"/>
  <path id="Path_43" data-name="Path 43" d="M1019.538,559.918c.2,4.332,0,8.716.869,12.965,2.031,10.043,9.743,18.931,8.888,29.138-.21,2.488-1.132,5.164-3.305,6.393s-5.771,1.132-6.483,3.6c-.2.69-.1,1.439-.322,2.121-.472,1.454-2.248,2.076-3.747,2.038s-3-.532-4.549-.4c-5.434.457-7.427,7.727-12.269,10.222-3.26,1.679-7.495.749-10.185-1.731a12.684,12.684,0,0,1-3.657-10.013c.157-2.765,1.034-5.433,1.5-8.161.847-4.864.4-9.848-.037-14.764-.652-7.2-1.327-14.494-3.695-21.322-1.117-3.223-2.6-6.3-3.567-9.57a55.658,55.658,0,0,1-1.836-14.307c-.292-10.14.4-20.984,6.46-29.138,4.549-6.115,11.069-11.084,16.218-16.742,3.223-3.545,4.152-4.654,7.712-1.649,2.93,2.466,6,5.868,6.325,9.211.9,8.566,0,16.99,1.6,25.713S1019.118,550.962,1019.538,559.918Z" transform="translate(-269.114 -194.61)" fill="#c32e4c"/>
  <circle id="Ellipse_10" data-name="Ellipse 10" cx="38.222" cy="38.222" r="38.222" transform="translate(634.47 123.8)" fill="#be6f72"/>
  <path id="Path_44" data-name="Path 44" d="M953.586,364.105c.839-1.177,1.836-2.443,3.26-2.691a5.688,5.688,0,0,1,3.1.652l10.065,4.2a32.856,32.856,0,0,0,4.676-14.809c.21-3.215-.045-6.475.57-9.638.914-4.692,3.695-8.9,4.339-13.632.51-3.822-.412-7.667-.967-11.481-1.709-11.781.127-23.8-.854-35.666s-5.741-24.574-16.323-30.023a99.223,99.223,0,0,0-9.346-3.582c-6.947-2.646-13.175-6.88-20.04-9.743s-14.929-4.174-21.584-.884-10.53,12.546-6.205,18.586a22.67,22.67,0,0,0,5.5,4.826c4.054,2.9,8.191,6.483,9.128,11.384,1.679,8.821-7.495,15.738-10.08,24.364a20.715,20.715,0,0,0-.247,10.335c1.117,5.111,3.845,9.938,3.747,15.169-.075,5.733-3.508,10.927-4.152,16.63-.232,2.091-.09,4.212-.352,6.3a32.485,32.485,0,0,1-2.421,7.967c-6,14.989-12.073,30.135-20.984,43.61a57.76,57.76,0,0,0,27.452-6.415A45.373,45.373,0,0,1,905,405.707a52.012,52.012,0,0,0,21.479-7.494,69.788,69.788,0,0,1-6.82,16.2c.255-.435,4.969-1.5,5.838-1.993a10.17,10.17,0,0,0,4.122-4.4c2.548-4.557,4.137-10.05,6.5-14.786a215.331,215.331,0,0,1,17.47-29.123Z" transform="translate(-245.895 -128.968)" fill="#3f3d56"/>
  <path id="Path_45" data-name="Path 45" d="M584.87,101.259a35.478,35.478,0,0,1-5.463.127,1.192,1.192,0,0,0-1.312,1.034l-3.485,26.141a10.612,10.612,0,0,1-2.248,5.179,11.286,11.286,0,0,0-2.541,8.626v44.4s-.225,5.921,4.324,5.921a65.763,65.763,0,0,0,16.4,0s3.642-.689,3.642-6.153V142.816a10.7,10.7,0,0,0-2.248-8.694,10.881,10.881,0,0,1-2.181-5.149l-3.62-26.688a1.192,1.192,0,0,0-1.267-1.027Z" transform="translate(-167.049 -95.488)" fill="#3f3d56"/>
  <rect id="Rectangle_7" data-name="Rectangle 7" width="22.086" height="37.345" rx="11.043" transform="translate(404.039 47.672)" fill="#c32e4c"/>
  <path id="Path_46" data-name="Path 46" d="M653.87,152.259a35.486,35.486,0,0,1-5.463.127,1.191,1.191,0,0,0-1.311,1.034l-3.485,26.141a10.613,10.613,0,0,1-2.248,5.179,11.286,11.286,0,0,0-2.541,8.626v44.4s-.225,5.921,4.324,5.921a65.764,65.764,0,0,0,16.4,0s3.642-.689,3.642-6.153V193.815a10.694,10.694,0,0,0-2.248-8.693,10.884,10.884,0,0,1-2.181-5.149l-3.62-26.688a1.192,1.192,0,0,0-1.267-1.027Z" transform="translate(-184.337 -108.267)" fill="#3f3d56"/>
  <rect id="Rectangle_8" data-name="Rectangle 8" width="22.086" height="37.345" rx="11.043" transform="translate(455.751 85.894)" fill="#c32e4c"/>
  <g id="Group_1" data-name="Group 1" transform="translate(367.242 290.174)" opacity="0.2">
    <path id="Path_47" data-name="Path 47" d="M576.016,746.2a14.242,14.242,0,0,1-.277,2.406q-7.824-1.244-15.738-2.248v-.645a12.651,12.651,0,0,1,1.874-6.355,6.972,6.972,0,0,1,12.688.39,12.643,12.643,0,0,1,1.454,6.453Z" transform="translate(-531.851 -544.569)" fill="#3f3d56"/>
    <ellipse id="Ellipse_11" data-name="Ellipse 11" cx="10.5" cy="8.019" rx="10.5" ry="8.019" transform="translate(28.225 198.825) rotate(-88.19)" fill="#3f3d56"/>
    <ellipse id="Ellipse_12" data-name="Ellipse 12" cx="10.5" cy="8.019" rx="10.5" ry="8.019" transform="translate(28.633 185.994) rotate(-88.19)" fill="#3f3d56"/>
    <ellipse id="Ellipse_13" data-name="Ellipse 13" cx="10.5" cy="8.019" rx="10.5" ry="8.019" transform="translate(29.035 173.164) rotate(-88.19)" fill="#3f3d56"/>
    <ellipse id="Ellipse_14" data-name="Ellipse 14" cx="10.5" cy="8.019" rx="10.5" ry="8.019" transform="translate(29.444 160.333) rotate(-88.19)" fill="#3f3d56"/>
    <path id="Path_48" data-name="Path 48" d="M532.955,542.054a37.221,37.221,0,0,1-2.848-4.5l21.179-2.8-22.8-.547a38.506,38.506,0,0,1,.232-30.457l30.068,16.825-27.542-21.614a38.431,38.431,0,1,1,62.084,44.967,38.071,38.071,0,0,1,4.159,7.142l-27.8,13.34,29.476-8.866a38.476,38.476,0,0,1-7.36,35.906,38.431,38.431,0,1,1-60.375-1.9,38.431,38.431,0,0,1,1.5-47.5Z" transform="translate(-522.44 -480.747)" fill="#c32e4c"/>
    <path id="Path_49" data-name="Path 49" d="M600.8,596.922a38.221,38.221,0,0,1-8.993,23.488,38.431,38.431,0,1,1-60.375-1.9C526.51,611.813,600.937,592.612,600.8,596.922Z" transform="translate(-522.44 -509.699)" opacity="0.1"/>
  </g>
</svg>
